<svg width="58" height="31" viewBox="0 0 58 31" fill="none" xmlns="http://www.w3.org/2000/svg">
<path d="M3.60682 11.5666C3.65002 11.293 3.78682 11.0698 4.01722 10.897C4.26202 10.7098 4.52842 10.6162 4.81642 10.6162H14.45C14.3492 11.221 14.1476 11.6674 13.8452 11.9554C13.5572 12.2434 13.1612 12.3874 12.6572 12.3874H5.50762L4.66522 17.1178H10.7132C10.526 18.2986 9.92122 18.889 8.89882 18.889H4.34122L3.39082 24.289C3.29002 24.8362 3.05242 25.2466 2.67802 25.5202C2.30362 25.7938 1.77082 25.9306 1.07962 25.9306L3.60682 11.5666ZM16.5373 11.5666C16.5805 11.293 16.7173 11.0698 16.9477 10.897C17.1781 10.7098 17.4445 10.6162 17.7469 10.6162H23.6869C24.8965 10.6162 25.8469 10.9258 26.5381 11.545C27.2293 12.1642 27.5749 13.021 27.5749 14.1154C27.5749 15.1666 27.3157 16.0882 26.7973 16.8802C26.2789 17.6722 25.5517 18.277 24.6157 18.6946V18.7594C25.1053 18.9898 25.4725 19.3138 25.7173 19.7314C25.9765 20.149 26.1061 20.6458 26.1061 21.2218C26.1061 21.4666 26.0845 21.733 26.0413 22.021L25.6525 24.2458C25.5517 24.793 25.2997 25.2106 24.8965 25.4986C24.5077 25.7866 23.9821 25.9306 23.3197 25.9306L23.9893 22.1506C24.0325 21.8626 24.0541 21.6034 24.0541 21.373C24.0541 20.1634 23.4277 19.5586 22.1749 19.5586H17.1421L16.3213 24.2458C16.2205 24.793 15.9757 25.2106 15.5869 25.4986C15.1981 25.7866 14.6725 25.9306 14.0101 25.9306L16.5373 11.5666ZM22.3477 17.809C22.9381 17.809 23.4709 17.665 23.9461 17.377C24.4357 17.0746 24.8173 16.6642 25.0909 16.1458C25.3645 15.613 25.5013 15.0226 25.5013 14.3746C25.5013 13.7266 25.3141 13.237 24.9397 12.9058C24.5653 12.5602 24.0253 12.3874 23.3197 12.3874H18.4165L17.4445 17.809H22.3477ZM30.9232 11.5666C30.9664 11.293 31.1032 11.0698 31.3336 10.897C31.5784 10.7098 31.8448 10.6162 32.1328 10.6162H41.7016C41.5864 11.2354 41.3776 11.689 41.0752 11.977C40.7872 12.2506 40.384 12.3874 39.8656 12.3874H32.8024L31.96 17.2258H38.008C37.8928 17.8306 37.684 18.277 37.3816 18.565C37.0936 18.853 36.6976 18.997 36.1936 18.997H31.636L30.772 23.965H38.2888C39.1096 23.965 39.52 24.3538 39.52 25.1314C39.52 25.3186 39.4984 25.5202 39.4552 25.7362H29.4544C29.1664 25.7362 28.936 25.6498 28.7632 25.477C28.6048 25.2898 28.5472 25.0594 28.5904 24.7858L30.9232 11.5666ZM44.4443 11.5666C44.4875 11.293 44.6243 11.0698 44.8547 10.897C45.0995 10.7098 45.3659 10.6162 45.6539 10.6162H55.2227C55.1075 11.2354 54.8987 11.689 54.5963 11.977C54.3083 12.2506 53.9051 12.3874 53.3867 12.3874H46.3235L45.4811 17.2258H51.5291C51.4139 17.8306 51.2051 18.277 50.9027 18.565C50.6147 18.853 50.2187 18.997 49.7147 18.997H45.1571L44.2931 23.965H51.8099C52.6307 23.965 53.0411 24.3538 53.0411 25.1314C53.0411 25.3186 53.0195 25.5202 52.9763 25.7362H42.9755C42.6875 25.7362 42.4571 25.6498 42.2843 25.477C42.1259 25.2898 42.0683 25.0594 42.1115 24.7858L44.4443 11.5666Z" fill="#12550D"/>
<path d="M5.922 8.86659C5.9652 8.59299 6.102 8.36979 6.3324 8.19699C6.5772 8.00979 6.8436 7.91619 7.1316 7.91619H16.7652C16.6644 8.52099 16.4628 8.96739 16.1604 9.25539C15.8724 9.54339 15.4764 9.68739 14.9724 9.68739H7.8228L6.9804 14.4178H13.0284C12.8412 15.5986 12.2364 16.189 11.214 16.189H6.6564L5.706 21.589C5.6052 22.1362 5.3676 22.5466 4.9932 22.8202C4.6188 23.0938 4.086 23.2306 3.3948 23.2306L5.922 8.86659ZM18.8525 8.86659C18.8957 8.59299 19.0325 8.36979 19.2629 8.19699C19.4933 8.00979 19.7597 7.91619 20.0621 7.91619H26.0021C27.2117 7.91619 28.1621 8.22579 28.8533 8.84499C29.5445 9.46419 29.8901 10.321 29.8901 11.4154C29.8901 12.4666 29.6309 13.3882 29.1125 14.1802C28.5941 14.9722 27.8669 15.577 26.9309 15.9946V16.0594C27.4205 16.2898 27.7877 16.6138 28.0325 17.0314C28.2917 17.449 28.4213 17.9458 28.4213 18.5218C28.4213 18.7666 28.3997 19.033 28.3565 19.321L27.9677 21.5458C27.8669 22.093 27.6149 22.5106 27.2117 22.7986C26.8229 23.0866 26.2973 23.2306 25.6349 23.2306L26.3045 19.4506C26.3477 19.1626 26.3693 18.9034 26.3693 18.673C26.3693 17.4634 25.7429 16.8586 24.4901 16.8586H19.4573L18.6365 21.5458C18.5357 22.093 18.2909 22.5106 17.9021 22.7986C17.5133 23.0866 16.9877 23.2306 16.3253 23.2306L18.8525 8.86659ZM24.6629 15.109C25.2533 15.109 25.7861 14.965 26.2613 14.677C26.7509 14.3746 27.1325 13.9642 27.4061 13.4458C27.6797 12.913 27.8165 12.3226 27.8165 11.6746C27.8165 11.0266 27.6293 10.537 27.2549 10.2058C26.8805 9.86019 26.3405 9.68739 25.6349 9.68739H20.7317L19.7597 15.109H24.6629ZM33.2384 8.86659C33.2816 8.59299 33.4184 8.36979 33.6488 8.19699C33.8936 8.00979 34.16 7.91619 34.448 7.91619H44.0168C43.9016 8.53539 43.6928 8.98899 43.3904 9.27699C43.1024 9.55059 42.6992 9.68739 42.1808 9.68739H35.1176L34.2752 14.5258H40.3232C40.208 15.1306 39.9992 15.577 39.6968 15.865C39.4088 16.153 39.0128 16.297 38.5088 16.297H33.9512L33.0872 21.265H40.604C41.4248 21.265 41.8352 21.6538 41.8352 22.4314C41.8352 22.6186 41.8136 22.8202 41.7704 23.0362H31.7696C31.4816 23.0362 31.2512 22.9498 31.0784 22.777C30.92 22.5898 30.8624 22.3594 30.9056 22.0858L33.2384 8.86659ZM46.7595 8.86659C46.8027 8.59299 46.9395 8.36979 47.1699 8.19699C47.4147 8.00979 47.6811 7.91619 47.9691 7.91619H57.5379C57.4227 8.53539 57.2139 8.98899 56.9115 9.27699C56.6235 9.55059 56.2203 9.68739 55.7019 9.68739H48.6387L47.7963 14.5258H53.8443C53.7291 15.1306 53.5203 15.577 53.2179 15.865C52.9299 16.153 52.5339 16.297 52.0299 16.297H47.4723L46.6083 21.265H54.1251C54.9459 21.265 55.3563 21.6538 55.3563 22.4314C55.3563 22.6186 55.3347 22.8202 55.2915 23.0362H45.2907C45.0027 23.0362 44.7723 22.9498 44.5995 22.777C44.4411 22.5898 44.3835 22.3594 44.4267 22.0858L46.7595 8.86659Z" fill="#32FF23"/>
</svg>
